<?xml version="1.0" standalone="no"?>
<!DOCTYPE svg PUBLIC "-//W3C//DTD SVG 20010904//EN"
 "http://www.w3.org/TR/2001/REC-SVG-20010904/DTD/svg10.dtd">
<svg version="1.0" xmlns="http://www.w3.org/2000/svg"
 width="170.000000pt" height="170.000000pt" viewBox="0 0 170.000000 170.000000"
 preserveAspectRatio="xMidYMid meet">
<metadata>
Created by potrace 1.14, written by Peter Selinger 2001-2017
</metadata>
<g transform="translate(0.000000,170.000000) scale(0.100000,-0.100000)"
fill="#000000" stroke="none">
<path d="M180 1515 c-4 -5 -7 -184 -7 -398 1 -213 -1 -387 -5 -387 -4 0 -5 -6
-3 -12 9 -24 11 -148 2 -148 -4 0 -5 -5 -1 -11 3 -6 6 -96 6 -199 l0 -189 120
-3 c66 -2 122 0 125 5 2 4 8 5 12 2 8 -4 205 -9 226 -5 6 1 14 2 18 1 28 -5
841 0 846 5 3 3 6 38 7 77 1 77 -14 104 -47 87 -10 -6 -20 -5 -27 2 -9 9 -12
9 -12 -1 0 -11 -3 -11 -15 -1 -8 7 -15 8 -15 3 0 -5 -9 -9 -20 -9 -11 0 -20 4
-20 8 0 5 -9 4 -19 -2 -14 -7 -22 -7 -26 0 -4 6 -11 7 -18 3 -16 -10 -57 -10
-57 0 0 4 -5 5 -11 1 -17 -10 -99 -11 -99 -1 0 5 -6 5 -13 -1 -7 -6 -18 -7
-26 -3 -7 4 -30 5 -52 1 -22 -4 -39 -3 -39 2 0 5 -5 6 -11 2 -17 -10 -51 -11
-76 -2 -13 4 -23 4 -23 -1 0 -9 -31 -8 -48 3 -6 4 -12 4 -12 -1 0 -4 -16 -8
-35 -8 -19 0 -35 4 -35 8 0 5 -5 5 -11 1 -17 -10 -99 -11 -99 -1 0 5 -6 5 -13
-1 -7 -6 -18 -7 -26 -3 -7 4 -30 5 -52 1 -22 -4 -39 -3 -39 2 0 5 -5 6 -11 2
-17 -10 -51 -11 -76 -2 -13 4 -23 4 -23 -1 0 -17 -45 -3 -59 19 -12 19 -13 22
-2 16 10 -7 12 -5 6 4 -4 6 -7 36 -6 66 1 30 1 61 1 69 1 36 1 146 0 163 0 9
0 40 1 67 0 51 0 78 -2 118 -1 24 0 83 1 137 1 33 1 47 -1 103 -1 24 0 83 1
137 1 19 1 46 1 60 -3 97 -2 163 2 167 3 2 1 17 -4 31 -9 27 -12 27 -90 28
-44 0 -84 -5 -89 -11z"/>
</g>
</svg>
